<svg xmlns="http://www.w3.org/2000/svg">
    <symbol id="sun" viewBox="0 0 16 16">
        <path d="M8 3.2C8.21217 3.2 8.41566 3.11571 8.56569 2.96569C8.71571 2.81566 8.8 2.61217 8.8 2.4V0.8C8.8 0.587827 8.71571 0.384344 8.56569 0.234315C8.41566 0.0842854 8.21217 0 8 0C7.78783 0 7.58434 0.0842854 7.43431 0.234315C7.28429 0.384344 7.2 0.587827 7.2 0.8V2.4C7.2 2.61217 7.28429 2.81566 7.43431 2.96569C7.58434 3.11571 7.78783 3.2 8 3.2ZM15.2 7.2H13.6C13.3878 7.2 13.1843 7.28429 13.0343 7.43431C12.8843 7.58434 12.8 7.78783 12.8 8C12.8 8.21217 12.8843 8.41566 13.0343 8.56569C13.1843 8.71571 13.3878 8.8 13.6 8.8H15.2C15.4122 8.8 15.6157 8.71571 15.7657 8.56569C15.9157 8.41566 16 8.21217 16 8C16 7.78783 15.9157 7.58434 15.7657 7.43431C15.6157 7.28429 15.4122 7.2 15.2 7.2ZM3.2 8C3.2 7.78783 3.11571 7.58434 2.96569 7.43431C2.81566 7.28429 2.61217 7.2 2.4 7.2H0.8C0.587827 7.2 0.384344 7.28429 0.234315 7.43431C0.0842854 7.58434 0 7.78783 0 8C0 8.21217 0.0842854 8.41566 0.234315 8.56569C0.384344 8.71571 0.587827 8.8 0.8 8.8H2.4C2.61217 8.8 2.81566 8.71571 2.96569 8.56569C3.11571 8.41566 3.2 8.21217 3.2 8ZM3.376 2.4C3.22005 2.25254 3.01191 2.17307 2.79737 2.17907C2.58283 2.18507 2.37946 2.27605 2.232 2.432C2.08454 2.58795 2.00507 2.79609 2.01107 3.01063C2.01707 3.22517 2.10805 3.42854 2.264 3.576L3.416 4.688C3.49331 4.76265 3.58486 4.82095 3.6852 4.85944C3.78554 4.89793 3.8926 4.9158 4 4.912C4.10776 4.91159 4.21433 4.88941 4.31331 4.84679C4.41229 4.80418 4.50164 4.742 4.576 4.664C4.725 4.51411 4.80863 4.31135 4.80863 4.1C4.80863 3.88865 4.725 3.68589 4.576 3.536L3.376 2.4ZM12 4.912C12.206 4.91118 12.4037 4.83094 12.552 4.688L13.704 3.576C13.8445 3.42916 13.9239 3.23434 13.926 3.0311C13.9281 2.82785 13.8527 2.63144 13.7153 2.48174C13.5778 2.33203 13.3885 2.24028 13.1858 2.22509C12.9831 2.20991 12.7822 2.27245 12.624 2.4L11.472 3.536C11.323 3.68589 11.2394 3.88865 11.2394 4.1C11.2394 4.31135 11.323 4.51411 11.472 4.664C11.6105 4.81017 11.7991 4.89873 12 4.912ZM8 12.8C7.78783 12.8 7.58434 12.8843 7.43431 13.0343C7.28429 13.1843 7.2 13.3878 7.2 13.6V15.2C7.2 15.4122 7.28429 15.6157 7.43431 15.7657C7.58434 15.9157 7.78783 16 8 16C8.21217 16 8.41566 15.9157 8.56569 15.7657C8.71571 15.6157 8.8 15.4122 8.8 15.2V13.6C8.8 13.3878 8.71571 13.1843 8.56569 13.0343C8.41566 12.8843 8.21217 12.8 8 12.8ZM12.584 11.312C12.4312 11.1645 12.2261 11.0838 12.0139 11.0876C11.8016 11.0913 11.5995 11.1792 11.452 11.332C11.3045 11.4848 11.2238 11.6899 11.2276 11.9021C11.2313 12.1144 11.3192 12.3165 11.472 12.464L12.624 13.6C12.7723 13.7429 12.97 13.8232 13.176 13.824C13.2832 13.8246 13.3894 13.8037 13.4884 13.7625C13.5873 13.7212 13.677 13.6606 13.752 13.584C13.827 13.5096 13.8865 13.4211 13.9271 13.3237C13.9677 13.2262 13.9886 13.1216 13.9886 13.016C13.9886 12.9104 13.9677 12.8058 13.9271 12.7083C13.8865 12.6109 13.827 12.5224 13.752 12.448L12.584 11.312ZM3.416 11.312L2.264 12.424C2.18902 12.4984 2.1295 12.5869 2.08889 12.6843C2.04827 12.7818 2.02736 12.8864 2.02736 12.992C2.02736 13.0976 2.04827 13.2022 2.08889 13.2997C2.1295 13.3971 2.18902 13.4856 2.264 13.56C2.33903 13.6366 2.42869 13.6972 2.52764 13.7385C2.62658 13.7797 2.73281 13.8006 2.84 13.8C3.03721 13.8017 3.22809 13.7305 3.376 13.6L4.528 12.488C4.68076 12.3405 4.76869 12.1384 4.77244 11.9261C4.7762 11.7139 4.69546 11.5088 4.548 11.356C4.40054 11.2032 4.19843 11.1153 3.98614 11.1116C3.77385 11.1078 3.56876 11.1885 3.416 11.336V11.312ZM8 4.8C7.3671 4.8 6.74841 4.98768 6.22218 5.3393C5.69594 5.69092 5.28579 6.19069 5.04359 6.77541C4.80138 7.36014 4.73801 8.00355 4.86149 8.62429C4.98496 9.24503 5.28973 9.81521 5.73726 10.2627C6.18479 10.7103 6.75497 11.015 7.37571 11.1385C7.99645 11.262 8.63986 11.1986 9.22459 10.9564C9.80931 10.7142 10.3091 10.3041 10.6607 9.77782C11.0123 9.25159 11.2 8.6329 11.2 8C11.2 7.15131 10.8629 6.33737 10.2627 5.73726C9.66263 5.13714 8.84869 4.8 8 4.8V4.8ZM8 9.6C7.68355 9.6 7.37421 9.50616 7.11109 9.33035C6.84797 9.15454 6.64289 8.90466 6.52179 8.61229C6.40069 8.31993 6.36901 7.99823 6.43074 7.68786C6.49248 7.37749 6.64487 7.09239 6.86863 6.86863C7.09239 6.64487 7.37749 6.49248 7.68786 6.43074C7.99823 6.36901 8.31993 6.40069 8.61229 6.52179C8.90466 6.64289 9.15454 6.84797 9.33035 7.11109C9.50616 7.37421 9.6 7.68355 9.6 8C9.6 8.42435 9.43143 8.83131 9.13137 9.13137C8.83131 9.43143 8.42435 9.6 8 9.6Z"/>
    </symbol>
    <symbol id="newspaper" viewBox="0 0 16 17">
        <path d="M3.99999 10.1V8.5H5.59999V10.1H3.99999ZM12 4.0952C11.9987 3.77777 11.8717 3.47378 11.6468 3.24977C11.4219 3.02577 11.1174 2.9 10.8 2.9H2.73839C2.42013 2.9 2.11491 3.02643 1.88986 3.25147C1.66482 3.47652 1.53839 3.78174 1.53839 4.1V11.3C1.53839 11.8304 1.7491 12.3391 2.12418 12.7142C2.49925 13.0893 3.00796 13.3 3.53839 13.3H12.4616C12.992 13.3 13.5007 13.0893 13.8758 12.7142C14.2509 12.3391 14.4616 11.8304 14.4616 11.3V6.5C14.4616 6.18174 14.3352 5.87652 14.1101 5.65147C13.8851 5.42643 13.5799 5.3 13.2616 5.3H12.8V11.084C12.8 11.1901 12.7578 11.2918 12.6828 11.3668C12.6078 11.4419 12.5061 11.484 12.4 11.484C12.2939 11.484 12.1922 11.4419 12.1171 11.3668C12.0421 11.2918 12 11.1901 12 11.084V4.096V4.0952ZM3.19999 5.7C3.19999 5.59392 3.24213 5.49217 3.31715 5.41716C3.39216 5.34214 3.4939 5.3 3.59999 5.3H9.99999C10.1061 5.3 10.2078 5.34214 10.2828 5.41716C10.3578 5.49217 10.4 5.59392 10.4 5.7C10.4 5.80609 10.3578 5.90783 10.2828 5.98284C10.2078 6.05786 10.1061 6.1 9.99999 6.1H3.59999C3.4939 6.1 3.39216 6.05786 3.31715 5.98284C3.24213 5.90783 3.19999 5.80609 3.19999 5.7ZM7.59999 7.7H9.99999C10.1061 7.7 10.2078 7.74214 10.2828 7.81716C10.3578 7.89217 10.4 7.99392 10.4 8.1C10.4 8.20609 10.3578 8.30783 10.2828 8.38285C10.2078 8.45786 10.1061 8.5 9.99999 8.5H7.59999C7.49391 8.5 7.39216 8.45786 7.31715 8.38285C7.24213 8.30783 7.19999 8.20609 7.19999 8.1C7.19999 7.99392 7.24213 7.89217 7.31715 7.81716C7.39216 7.74214 7.49391 7.7 7.59999 7.7ZM7.19999 10.5C7.19999 10.3939 7.24213 10.2922 7.31715 10.2172C7.39216 10.1421 7.49391 10.1 7.59999 10.1H9.99999C10.1061 10.1 10.2078 10.1421 10.2828 10.2172C10.3578 10.2922 10.4 10.3939 10.4 10.5C10.4 10.6061 10.3578 10.7078 10.2828 10.7828C10.2078 10.8579 10.1061 10.9 9.99999 10.9H7.59999C7.49391 10.9 7.39216 10.8579 7.31715 10.7828C7.24213 10.7078 7.19999 10.6061 7.19999 10.5ZM3.59999 7.7H5.99999C6.10608 7.7 6.20782 7.74214 6.28283 7.81716C6.35785 7.89217 6.39999 7.99392 6.39999 8.1V10.5C6.39999 10.6061 6.35785 10.7078 6.28283 10.7828C6.20782 10.8579 6.10608 10.9 5.99999 10.9H3.59999C3.4939 10.9 3.39216 10.8579 3.31715 10.7828C3.24213 10.7078 3.19999 10.6061 3.19999 10.5V8.1C3.19999 7.99392 3.24213 7.89217 3.31715 7.81716C3.39216 7.74214 3.4939 7.7 3.59999 7.7V7.7Z"/>
    </symbol>
    <symbol id="philosophy" viewBox="0 0 16 17">
        <path d="M7.49998 13.522V15C7.49998 15.1326 7.55266 15.2598 7.64643 15.3535C7.74019 15.4473 7.86737 15.5 7.99998 15.5C8.13259 15.5 8.25977 15.4473 8.35353 15.3535C8.4473 15.2598 8.49998 15.1326 8.49998 15V13.522C9.43981 13.4253 10.3314 13.0581 11.0669 12.465C11.8023 11.8719 12.35 11.0783 12.6437 10.1803C12.9374 9.28229 12.9644 8.31841 12.7214 7.40538C12.4785 6.49234 11.9761 5.66932 11.275 5.03599L8.83798 2.83599C8.60823 2.62841 8.30962 2.51349 7.99998 2.51349C7.69034 2.51349 7.39173 2.62841 7.16198 2.83599L4.72498 5.03599C4.02389 5.66932 3.52146 6.49234 3.27853 7.40538C3.0356 8.31841 3.0626 9.28229 3.35626 10.1803C3.64991 11.0783 4.19763 11.8719 4.93307 12.465C5.66852 13.0581 6.56015 13.4253 7.49998 13.522ZM10.604 5.77799C11.155 6.2758 11.5518 6.92105 11.7475 7.63737C11.9432 8.35368 11.9295 9.11107 11.7082 9.81987C11.4868 10.5287 11.067 11.1592 10.4984 11.6369C9.92986 12.1145 9.23635 12.4192 8.49998 12.515V8.00099C8.49998 7.86838 8.4473 7.7412 8.35353 7.64744C8.25977 7.55367 8.13259 7.50099 7.99998 7.50099C7.86737 7.50099 7.74019 7.55367 7.64643 7.64744C7.55266 7.7412 7.49998 7.86838 7.49998 8.00099V12.515C6.76353 12.4194 6.0699 12.1148 5.5012 11.6372C4.9325 11.1596 4.51256 10.5291 4.29108 9.82026C4.0696 9.11143 4.05587 8.35398 4.25151 7.63759C4.44715 6.9212 4.84397 6.27586 5.39498 5.77799L7.83198 3.57799C7.87798 3.53625 7.93787 3.51313 7.99998 3.51313C8.06209 3.51313 8.12198 3.53625 8.16798 3.57799L10.605 5.77799H10.604Z" />
    </symbol>

    <!-- Redes Sociales -->
    <symbol id="whatsapp" viewBox="0 0 16 17">
        <path fill-rule="evenodd" clip-rule="evenodd" d="M11.61 10.088C11.4113 9.98865 10.4373 9.50998 10.256 9.44332C10.0747 9.37732 9.94267 9.34465 9.81 9.54331C9.678 9.74065 9.29867 10.1873 9.18333 10.3193C9.06733 10.452 8.952 10.468 8.754 10.3693C8.556 10.2693 7.91733 10.0606 7.16067 9.38598C6.572 8.86065 6.174 8.21198 6.05867 8.01332C5.94333 7.81532 6.046 7.70798 6.14533 7.60931C6.23467 7.52065 6.34333 7.37798 6.44267 7.26265C6.542 7.14665 6.57467 7.06398 6.64067 6.93132C6.70733 6.79932 6.674 6.68398 6.624 6.58465C6.57467 6.48531 6.17867 5.50998 6.01333 5.11332C5.85267 4.72732 5.68933 4.77998 5.568 4.77331C5.452 4.76798 5.32 4.76665 5.188 4.76665C5.056 4.76665 4.84133 4.81598 4.66 5.01465C4.478 5.21265 3.96667 5.69198 3.96667 6.66732C3.96667 7.64198 4.676 8.58398 4.77533 8.71665C4.87467 8.84865 6.172 10.85 8.15933 11.708C8.63267 11.912 9.00133 12.034 9.28867 12.1246C9.76333 12.276 10.1953 12.2546 10.5367 12.2033C10.9167 12.1466 11.7087 11.724 11.874 11.2613C12.0387 10.7986 12.0387 10.402 11.9893 10.3193C11.94 10.2366 11.808 10.1873 11.6093 10.088H11.61ZM7.99533 15.0233H7.99267C6.81229 15.0235 5.65358 14.7062 4.638 14.1046L4.398 13.962L1.90333 14.6166L2.56933 12.1846L2.41267 11.9353C1.75276 10.8849 1.40353 9.66917 1.40533 8.42865C1.40667 4.79531 4.36267 1.83931 7.998 1.83931C9.758 1.83931 11.4127 2.52598 12.6567 3.77132C13.2703 4.38237 13.7566 5.10903 14.0875 5.90925C14.4185 6.70947 14.5874 7.56737 14.5847 8.43331C14.5833 12.0666 11.6273 15.0233 7.99533 15.0233V15.0233ZM13.6033 2.82531C12.8688 2.08593 11.9948 1.49967 11.0321 1.10052C10.0693 0.701357 9.03689 0.497237 7.99467 0.499982C3.62533 0.499982 0.068 4.05665 0.0666667 8.42798C0.064642 9.81915 0.429583 11.1862 1.12467 12.3913L0 16.5L4.20267 15.3973C5.36525 16.0307 6.66806 16.3626 7.992 16.3626H7.99533C12.3647 16.3626 15.922 12.806 15.9233 8.43398C15.9266 7.39216 15.7232 6.36005 15.325 5.39734C14.9267 4.43463 14.3416 3.56043 13.6033 2.82531"/>
    </symbol>
</svg>